<svg width="45" height="28" viewBox="0 0 45 28" fill="none" xmlns="http://www.w3.org/2000/svg">
<path d="M14.6818 26.4091C15.7186 26.4091 16.7129 25.9972 17.446 25.2641C18.1791 24.531 18.5909 23.5367 18.5909 22.5C18.5909 21.4632 18.1791 20.4689 17.446 19.7358C16.7129 19.0027 15.7186 18.5909 14.6818 18.5909C13.6451 18.5909 12.6508 19.0027 11.9177 19.7358C11.1846 20.4689 10.7727 21.4632 10.7727 22.5C10.7727 23.5367 11.1846 24.531 11.9177 25.2641C12.6508 25.9972 13.6451 26.4091 14.6818 26.4091ZM34.2273 26.4091C35.264 26.4091 36.2583 25.9972 36.9914 25.2641C37.7245 24.531 38.1364 23.5367 38.1364 22.5C38.1364 21.4632 37.7245 20.4689 36.9914 19.7358C36.2583 19.0027 35.264 18.5909 34.2273 18.5909C33.1905 18.5909 32.1962 19.0027 31.4631 19.7358C30.73 20.4689 30.3182 21.4632 30.3182 22.5C30.3182 23.5367 30.73 24.531 31.4631 25.2641C32.1962 25.9972 33.1905 26.4091 34.2273 26.4091Z" stroke="white" stroke-width="2" stroke-miterlimit="1.5" stroke-linecap="round" stroke-linejoin="round"/>
<path d="M18.6886 22.5H28.3636V2.17273C28.3636 1.8617 28.2401 1.56341 28.0202 1.34348C27.8002 1.12355 27.5019 1 27.1909 1H1M10.0886 22.5H6.08182C5.92781 22.5 5.77532 22.4697 5.63303 22.4107C5.49075 22.3518 5.36147 22.2654 5.25257 22.1565C5.14368 22.0476 5.05729 21.9183 4.99836 21.7761C4.93942 21.6338 4.90909 21.4813 4.90909 21.3273V11.75" stroke="white" stroke-width="2" stroke-linecap="round"/>
<path d="M2.95454 6.86365H10.7727" stroke="white" stroke-width="2" stroke-linecap="round" stroke-linejoin="round"/>
<path d="M28.3636 6.86365H39.3286C39.5553 6.8637 39.7771 6.92946 39.9672 7.05295C40.1573 7.17644 40.3075 7.35237 40.3997 7.55947L43.8984 15.4324C43.965 15.5819 43.9996 15.7437 44 15.9073V21.3273C44 21.4813 43.9697 21.6338 43.9107 21.7761C43.8518 21.9183 43.7654 22.0476 43.6565 22.1565C43.5476 22.2654 43.4183 22.3518 43.2761 22.4107C43.1338 22.4697 42.9813 22.5 42.8273 22.5H39.1136M28.3636 22.5H30.3182" stroke="white" stroke-width="2" stroke-linecap="round"/>
</svg>
