<svg width="38" height="31" viewBox="0 0 38 31" fill="none" xmlns="http://www.w3.org/2000/svg">
<path d="M37.9412 1.24831C37.9231 0.938381 37.7919 0.645885 37.5723 0.426356C37.3528 0.206828 37.0603 0.075552 36.7504 0.0574524C28.5537 -0.417625 21.9723 2.07495 19.144 6.74337C17.2754 9.82979 17.2785 13.5782 19.1187 17.1539C18.0711 18.4006 17.3056 19.8592 16.8747 21.4296L14.2982 18.8436C15.5366 16.2576 15.4891 13.5623 14.1399 11.3231C12.0495 7.87247 7.22433 6.02284 1.23361 6.3744C0.923675 6.3925 0.631178 6.52377 0.41165 6.7433C0.192121 6.96283 0.0608459 7.25532 0.0427463 7.56526C-0.310394 13.556 1.54082 18.3812 4.99147 20.4715C6.13011 21.1674 7.43865 21.5356 8.77308 21.5357C10.0683 21.5196 11.3433 21.2128 12.504 20.6378L16.463 24.5968V29.1369C16.463 29.4729 16.5965 29.7952 16.8341 30.0327C17.0716 30.2703 17.3939 30.4038 17.7299 30.4038C18.0659 30.4038 18.3881 30.2703 18.6257 30.0327C18.8633 29.7952 18.9967 29.4729 18.9967 29.1369V24.4669C18.991 22.4515 19.6768 20.495 20.9398 18.9244C22.5692 19.776 24.3764 20.2317 26.2148 20.2546C27.9921 20.2603 29.7365 19.7747 31.2553 18.8515C35.9237 16.0264 38.4227 9.44498 37.9412 1.24831ZM6.29793 18.3052C3.8687 16.834 2.49414 13.3517 2.5274 8.86697C7.01213 8.82896 10.4944 10.2083 11.9656 12.6375C12.7336 13.9044 12.8587 15.3819 12.3552 16.9037L8.48962 13.0381C8.2501 12.8106 7.93117 12.6856 7.60082 12.6898C7.27046 12.6941 6.95483 12.8272 6.72122 13.0608C6.48761 13.2944 6.35449 13.61 6.35027 13.9404C6.34604 14.2707 6.47102 14.5897 6.69858 14.8292L10.5641 18.6947C9.04229 19.1983 7.56639 19.0732 6.29793 18.3052ZM29.9425 16.6867C27.8205 17.971 25.3264 18.0692 22.7926 17.0035L31.2949 8.49958C31.5225 8.26006 31.6475 7.94112 31.6432 7.61077C31.639 7.28042 31.5059 6.96479 31.2723 6.73117C31.0387 6.49756 30.723 6.36445 30.3927 6.36022C30.0623 6.35599 29.7434 6.48098 29.5039 6.70853L21 15.2013C19.9295 12.6676 20.0261 10.1718 21.3167 8.05142C23.5242 4.40916 28.7596 2.379 35.4629 2.53577C35.6149 9.23753 33.5879 14.4792 29.9425 16.6867Z" fill="white"/>
</svg>
