<svg width="115" height="80" viewBox="0 0 115 80" fill="none" xmlns="http://www.w3.org/2000/svg">
<rect x="0.5" y="0.5" width="114" height="79" rx="9.5" fill="url(#paint0_linear)"/>
<rect x="0.5" y="0.5" width="114" height="79" rx="9.5" stroke="#E8E8E8"/>
<rect x="0.5" y="0.5" width="114" height="79" rx="9.5" stroke="#EDEDED"/>
<path d="M47.9717 63.2763L48.8355 57.7788L46.9115 57.7341H37.7242L44.1089 17.1681C44.1279 17.0442 44.1907 16.9312 44.2859 16.8498C44.3811 16.7684 44.5023 16.724 44.6275 16.7246H60.1185C65.2612 16.7246 68.8103 17.797 70.6632 19.9136C71.5319 20.9065 72.0852 21.9441 72.3527 23.086C72.6335 24.2841 72.6384 25.7156 72.3643 27.4615L72.3444 27.5889V28.7076L73.2131 29.2007C73.8763 29.5374 74.4724 29.9928 74.972 30.5445C75.7151 31.3934 76.1957 32.4724 76.3989 33.7516C76.6086 35.0673 76.5392 36.6328 76.1957 38.4052C75.7994 40.444 75.1586 42.2197 74.2932 43.6726C73.5297 44.9743 72.5031 46.1016 71.2792 46.9824C70.1298 47.7999 68.764 48.4205 67.2199 48.8176C65.7236 49.2082 64.0176 49.4051 62.1465 49.4051H60.9409C60.0788 49.4051 59.2415 49.7163 58.5842 50.2739C57.9279 50.8376 57.4924 51.6164 57.3555 52.4716L57.2647 52.9664L55.7387 62.6557L55.6693 63.0115C55.6512 63.1241 55.6198 63.1803 55.5736 63.2184C55.5288 63.2551 55.4729 63.2755 55.415 63.2763H47.9717Z" fill="#253B80"/>
<path d="M74.0817 27.9316C74.0357 28.2264 73.983 28.5278 73.9238 28.8374C71.8887 39.296 64.9264 42.9091 56.0342 42.9091H51.5067C50.4193 42.9091 49.5029 43.6995 49.3335 44.7732L47.0154 59.4888L46.359 63.6601C46.3329 63.8256 46.3428 63.9947 46.3883 64.156C46.4337 64.3172 46.5135 64.4667 46.6222 64.594C46.7308 64.7214 46.8658 64.8238 47.0177 64.8939C47.1697 64.9641 47.3351 65.0005 47.5024 65.0006H55.5325C56.4834 65.0006 57.2912 64.3089 57.4409 63.3703L57.5198 62.9619L59.0317 53.3579L59.1288 52.8309C59.2769 51.889 60.0863 51.1973 61.0372 51.1973H62.2382C70.0182 51.1973 76.1086 48.0355 77.8887 38.886C78.6323 35.0638 78.2473 31.8724 76.2797 29.6278C75.6561 28.9335 74.9112 28.3587 74.0817 27.9316Z" fill="#179BD7"/>
<path d="M71.7804 26.9261C71.124 26.7412 70.4562 26.5969 69.7811 26.494C68.4472 26.2944 67.099 26.1986 65.7494 26.2076H53.5311C53.0661 26.2073 52.6163 26.3689 52.263 26.6633C51.9098 26.9577 51.6763 27.3655 51.6049 27.8129L49.0057 43.8428L48.9309 44.3105C49.0119 43.8002 49.2778 43.3349 49.6804 42.999C50.0831 42.663 50.596 42.4784 51.1263 42.4787H55.6998C64.6824 42.4787 71.7156 38.9267 73.7714 28.6511C73.8328 28.3469 73.8844 28.0507 73.9309 27.7611C73.3884 27.4841 72.8231 27.2519 72.2407 27.0669C72.0881 27.0176 71.9346 26.9706 71.7804 26.9261Z" fill="#222D65"/>
<path d="M51.7292 27.6161C51.7989 27.1629 52.0286 26.7498 52.3765 26.4518C52.7245 26.1539 53.1676 25.9908 53.6254 25.9922H65.6539C67.079 25.9922 68.4091 26.0856 69.6231 26.2822C70.4446 26.4116 71.2547 26.605 72.0461 26.8607C72.6433 27.059 73.1979 27.2933 73.71 27.5637C74.3121 23.7177 73.7051 21.0991 71.6289 18.728C69.34 16.1176 65.2089 15 59.9227 15H44.5762C43.4964 15 42.5753 15.7866 42.4084 16.8566L36.0162 57.4383C35.9864 57.6267 35.9978 57.8193 36.0494 58.0029C36.1011 58.1865 36.1918 58.3567 36.3154 58.5019C36.439 58.647 36.5925 58.7636 36.7654 58.8436C36.9383 58.9237 37.1264 58.9652 37.3169 58.9655H46.7915L49.1704 43.8488L51.7292 27.6161Z" fill="#253B80"/>
<defs>
<linearGradient id="paint0_linear" x1="57" y1="5" x2="57" y2="80" gradientUnits="userSpaceOnUse">
<stop stop-color="#F5F5F5"/>
<stop offset="1" stop-color="white"/>
</linearGradient>
</defs>
</svg>
