<svg width="38" height="38" viewBox="0 0 38 38" fill="none" xmlns="http://www.w3.org/2000/svg">
<path d="M4.69967 6.54821C4.62302 6.59706 4.55059 6.65517 4.48236 6.72255L0.80591 10.399C0.293803 10.9121 0.00430346 11.6062 4.75917e-05 12.3311C-0.00420828 13.056 0.277122 13.7535 0.783169 14.2725L0.807174 14.2978L0.920878 14.4229L1.35801 14.8954C1.73703 15.3035 2.28155 15.8909 2.95367 16.606C4.67347 18.4384 6.4124 20.2527 8.17019 22.0487C12.1726 26.1332 16.9798 30.8065 19.8439 32.7319C23.0693 34.91 26.0004 36.1367 28.1405 36.8202C29.2119 37.1613 30.0836 37.3685 30.6989 37.4898C31.0038 37.5502 31.3106 37.6011 31.6186 37.6427L31.6629 37.6477C32.5156 37.7829 33.2699 37.8069 33.9407 37.6667C34.601 37.5367 35.2071 37.2114 35.6804 36.733L36.5648 35.8487C36.6305 35.783 36.6878 35.7118 36.7366 35.6351C37.1351 35.2734 37.4534 34.8323 37.671 34.3401C37.8886 33.8478 38.0006 33.3155 38 32.7774C37.8522 31.1438 36.3109 30.2001 34.9464 29.3662C34.2593 29.0265 33.6461 28.5542 33.1423 27.9765L32.1379 25.6317H32.1467C32.4986 25.6317 32.836 25.4919 33.0847 25.2431C33.3335 24.9943 33.4733 24.6569 33.4733 24.3051C33.4733 23.9533 33.3335 23.6159 33.0847 23.3671C32.836 23.1183 32.4986 22.9785 32.1467 22.9785H31.0008L30.1872 21.0784C30.4744 20.9645 30.7128 20.7539 30.8613 20.483C31.0098 20.2122 31.0591 19.8979 31.0007 19.5946C30.9423 19.2912 30.7799 19.0178 30.5414 18.8214C30.3029 18.625 30.0034 18.518 29.6945 18.5188H29.0906L28.4185 16.9509C28.7655 16.9358 29.0927 16.7853 29.3299 16.5316C29.5671 16.2779 29.6953 15.9412 29.687 15.594C29.6788 15.2468 29.5347 14.9167 29.2857 14.6746C29.0367 14.4324 28.7026 14.2976 28.3553 14.2991H27.2827L26.7634 13.0862C26.6851 12.8967 26.6371 12.7603 26.5967 12.644C26.4281 12.0921 26.1139 11.5959 25.687 11.2076L25.0301 10.5493C24.7272 10.258 24.3609 10.0409 23.96 9.91513V9.34661C23.1704 6.96512 20.2899 6.13508 18.3581 7.58418L15.6696 4.84263C15.9114 4.59869 16.1025 4.30939 16.232 3.99136C16.3616 3.67332 16.427 3.33282 16.4245 2.98942C16.4221 2.64602 16.3518 2.30649 16.2177 1.99034C16.0836 1.6742 15.8883 1.38767 15.6431 1.14723C14.9059 0.412537 13.9076 0 12.8668 0C11.8261 0 10.8277 0.412537 10.0905 1.14723L4.69967 6.54821ZM16.6538 18.1461L16.6576 17.2049C16.6576 15.0571 15.8238 13.0104 14.333 11.4817L8.88779 5.92788L11.8757 2.93618C12.0099 2.80146 12.1713 2.69692 12.3491 2.62954C12.5269 2.56216 12.717 2.53349 12.9068 2.54545C13.0966 2.55741 13.2816 2.60972 13.4495 2.69888C13.6175 2.78805 13.7645 2.91202 13.8807 3.06252C13.3965 3.54926 13.1247 4.20788 13.1247 4.89443C13.1247 5.58098 13.3965 6.23961 13.8807 6.72634L19.4775 12.3383C19.983 12.8256 20.6578 13.0978 21.3599 13.0978C22.0621 13.0978 22.7369 12.8256 23.2424 12.3383L23.8993 12.9953C24.0526 13.1163 24.1614 13.2847 24.2089 13.4741L24.2127 13.4867C24.267 13.6434 24.334 13.8329 24.4401 14.0792L24.5336 14.2991H23.3409C22.6082 14.2991 22.0144 14.8929 22.0144 15.6256C22.0177 15.9764 22.1585 16.3119 22.4066 16.56C22.6546 16.8081 22.9901 16.9489 23.3409 16.9522H25.6706L26.3415 18.5188H25.3497C24.6169 18.5188 24.0232 19.1126 24.0232 19.8453C24.0265 20.1961 24.1673 20.5316 24.4153 20.7797C24.6634 21.0278 24.9989 21.1686 25.3497 21.1719H27.4785L28.2517 22.9785H27.0174C26.2846 22.9785 25.6908 23.5723 25.6908 24.3051C25.6908 24.6715 25.8424 25 26.0825 25.24C26.3225 25.48 26.651 25.619 27.0174 25.6317H29.3888L30.8202 28.9746C31.4818 30.0849 32.4622 30.9706 33.6337 31.5165L33.6375 31.519C34.273 31.9069 35.4543 32.627 35.4859 32.9871C35.4859 33.0578 35.4164 33.2739 35.1005 33.6276C32.9411 33.3582 30.8217 32.8314 28.7874 32.0585C25.0705 30.6283 21.2285 28.0877 19.7946 23.5925L19.7933 23.59C19.2817 21.9982 18.1282 20.1448 16.7915 18.3305L16.6538 18.1461ZM2.58981 12.5063C2.55851 12.468 2.54142 12.42 2.54142 12.3705C2.54142 12.321 2.55851 12.273 2.58981 12.2347L5.41348 9.40977C5.667 9.65824 5.96179 9.95008 6.29785 10.2853C7.69207 11.6797 9.05311 13.1069 10.3798 14.5657C11.906 16.246 13.4714 18.0842 14.7587 19.8302C16.0651 21.6027 17.0088 23.1807 17.3891 24.3619C17.4476 24.5464 17.51 24.7296 17.5761 24.9115L2.59234 12.5089L2.58981 12.5063Z" fill="white"/>
</svg>
